<svg xmlns="http://www.w3.org/2000/svg" id="Layer_1" width="1197.716" height="806.1" viewBox="0 0 1197.716 806.1"><path id="path6078" fill="#fff" d="M482.4164 557.4c-42.3-31.3-89.9-55.7-141.2-72.5-53.2-17.4-109.1-26.2-166.3-26.2-59.7 0-117.9 9.6-173.1 28.5v315.9h645.6c-21.6-95.7-80.1-182.9-165-245.7z" class="st33"/><path id="path6082" fill="#587faa" stroke="#000" stroke-linecap="round" stroke-linejoin="round" stroke-miterlimit="10" stroke-width="2" d="M515.7164 589.8c-1.1 3.3-6.4 5.1-7.4 4.2l-.2-7.1.2-3.6c-86.1-74.6-203.7-120.6-333.4-120.6-61 0-119.4 10.2-173.1 28.8v313.6h641.9c-18.4-83.2-63.7-157.2-128-215.3" class="st80"/><path id="path6084" fill="none" stroke="#2d3f68" stroke-linecap="round" stroke-linejoin="round" stroke-miterlimit="10" stroke-width="3" d="M351.5164 565.1l9.3 4.8" class="st81"/><path id="path6086" fill="none" stroke="#2d3f68" stroke-linecap="round" stroke-linejoin="round" stroke-miterlimit="10" stroke-width="3" d="M336.5164 558c2.2 1 4.4 2 6.5 3" class="st81"/><path id="path6088" fill="none" stroke="#2d3f68" stroke-linecap="round" stroke-linejoin="round" stroke-miterlimit="10" stroke-width="3" d="M321.5164 551.5c2.6 1 5.1 2.1 7.7 3.2" class="st81"/><path id="path6090" fill="none" stroke="#2d3f68" stroke-linecap="round" stroke-linejoin="round" stroke-miterlimit="10" stroke-width="3" d="M304.8164 545.1c3.4 1.2 6.7 2.5 10 3.7" class="st81"/><g id="g6092" transform="translate(-1343.3836 -75.800003)"><path id="path6094" fill="none" stroke="#2d3f68" stroke-linecap="round" stroke-linejoin="round" stroke-miterlimit="10" stroke-width="3" d="M1890.4 836.8c1.9 3.9 3.8 7.8 5.5 11.7" class="st81"/><path id="path6100" fill="none" stroke="#2d3f68" stroke-linecap="round" stroke-linejoin="round" stroke-miterlimit="10" stroke-width="3" d="M1880.9 818.7c1.5 2.7 2.9 5.4 4.4 8.1" class="st81"/><path id="path6102" fill="none" stroke="#2d3f68" stroke-linecap="round" stroke-linejoin="round" stroke-miterlimit="10" stroke-width="3" d="M1871.4 802.4c1.8 2.9 3.5 5.8 5.2 8.8" class="st81"/><path id="path6104" fill="none" stroke="#2d3f68" stroke-linecap="round" stroke-linejoin="round" stroke-miterlimit="10" stroke-width="3" d="M1860.3 785.1c2 2.9 4 5.9 5.9 8.9" class="st81"/><path id="path6106" fill="none" stroke="#2d3f68" stroke-linecap="round" stroke-linejoin="round" stroke-miterlimit="10" stroke-width="3" d="M1848.4 768.6c2.2 2.9 4.3 5.8 6.4 8.8" class="st81"/><path id="path6108" fill="none" stroke="#2d3f68" stroke-linecap="round" stroke-linejoin="round" stroke-miterlimit="10" stroke-width="3" d="M1834.4 751c2.6 3.1 5.2 6.3 7.7 9.5" class="st81"/></g><path id="path6110" fill="#2d3f68" d="M156.6164 523.5c-54.6 0-106.7 10.1-154.8 28.4V805h559.5c-59.5-164.1-218.2-281.5-404.7-281.5z" class="st82"/><g id="g6112" transform="translate(-1343.3836 -75.800003)"><path id="path6114" d="M2065.2 128.3c1.4 69-36.9 80.4-35.7 141.1 1.2 60.6 39.9 70.5 41.3 139.5 1.4 69-36.9 80.4-35.7 141.1 1.2 60.6 39.9 70.5 41.3 139.5 1.4 69-36.9 80.4-35.7 141.1.4 20.5 5.1 35.2 11.2 48.3H2541v-803h-487.3c6.2 13.6 11 29.7 11.5 52.4z"/></g><g id="g6116" transform="translate(-1343.3836 -75.800003)"><circle id="circle6118" cx="2236.6" cy="645.4" r="33.8" fill="#ebb548" stroke="#663f09" stroke-linecap="round" stroke-linejoin="round" stroke-miterlimit="10" stroke-width="3.307" class="st83"/><g id="g6120"><path id="path6122" fill="#ad6a3b" stroke="#663f09" stroke-miterlimit="10" stroke-width="1.653" d="M2243.3 641.5c-2.4-5.6-8-6.2-15.8-3.2-5.7 2.2-18.2 7.3-24.5 9.9.7 8.2 4.3 15.5 9.7 21 6.7-2.6 21.3-8.2 32-12.6 14.3-5.9 12.9-9.1 10.2-14.1-2.7-5-11.6-1-11.6-1z" class="st84"/><path id="path6124" fill="#ad6a3b" stroke="#663f09" stroke-miterlimit="10" stroke-width="1.653" d="M2243.4 612.3c-12.6 4.4-13.1 7.3-11.2 11.6 2.1 4.6 9.4 2.6 15.4.1 2.6-1 6.8-2.8 10.7-4.5-4.2-3.5-9.2-6.1-14.9-7.2z" class="st84"/></g><g id="g6126"><circle id="circle6128" cx="2218.8" cy="627.7" r="3" fill="#fff" class="st33"/></g></g><g id="g6130" transform="translate(-1343.3836 -75.800003)"><circle id="circle6132" cx="2402.5" cy="485.8" r="33.8" fill="#ebb548" stroke="#663f09" stroke-linecap="round" stroke-linejoin="round" stroke-miterlimit="10" stroke-width="3.307" class="st83"/><g id="g6134"><circle id="circle6136" cx="2384.8" cy="468.2" r="3" fill="#fff" class="st33"/></g></g><path id="path6138" fill="#fff" d="M292.3164 506.3c-2.7 0-6.7-.4-9.8-3.5-2.9-3-4.2-7.6-4-14 .1-2.2.2-4.1.2-5.9-2.9-.4-5.8-.9-8.6-1.7-17.4-4.7-31.5-16.3-39.6-32.8-1-2.1-2-4.2-2.8-6.4-.6 0-1.2 0-1.7.1-.9 2.2-1.8 4.3-2.8 6.4-8.1 16.5-22.1 28.1-39.6 32.8-2.8.8-5.7 1.3-8.6 1.7.1 1.7.1 3.7.2 5.9.3 6.4-1 11-4 14-3.1 3.2-7.1 3.5-9.8 3.5H149.6164c-13.1 0-13.1-9.7-13.1-14.9v-14.7c-2-.9-3.9-1.9-5.7-3-1.6 2.7-4.5 5.6-9.3 6.9-4.8 1.2-8.9 1.8-12.5 1.8-4.5 0-8.3-1-11.2-2.9-3.3-2.2-5.4-5.7-6-10.1-1.5-10.5-.6-17.6 2.6-21.8 1.8-2.3 4.2-3.6 7.1-3.9l5.5-.5c-9.9-1.8-15.4-7.7-16.4-17.5-.8-8.1 6.6-16.9 11-18.6 1.1-.5 2.2-.7 3.1-.7 1.8 0 3.2.8 4.2 2.2 1 1.4 1.9 4.3-2.2 8.4-.7.9-3.3 6.5-1.8 9.9.8 1.7 2.7 2.7 5.8 3.1 1.9-7.1 5.8-12.8 11.4-16.6h-.5c-3.8 0-7-1.3-9.2-3.8-2.2-2.5-3.2-6-2.7-9.9.6-4.5.6-11.5 0-21.9-.7-13.3 4.2-23.4 13-26.3 2.2-.7 4.4-1.1 6.6-1.1 3.2 0 6.4.8 9.3 2.2l.1-.1c-1.5-3.1-1.9-6.5-1.1-9.5.7-2.6 3.4-8.9 13.8-10.1 1.4-.2 3.5-.3 6.1-.3 2.1-3.3 5.4-7.6 9.2-9.8.1-.7.1-1.2.2-1.7-1.3-3-1.4-5.7-.3-8 .7-1.6 2.4-3.7 6-4.6.7-.2 1.5-.3 2.2-.3 2.9 0 5.6 1.4 7.7 4 .4-.1.7-.1 1.1-.1h.5c2.6.2 5 1.5 6.6 3.8 2.2 3 1.3 7.1-2 10.5.3 3.1 1.5 5.7 3.5 7.7.5.5 1.2 1 1.9 1.5 4.7.7 8.8 1.6 12.5 2.5 2.8.7 5.3 1.2 7.1 1.4 1.3.2 2.8.2 4.4.2 7.5 0 17.4-1.7 22.8-6.5 2.2-1.9 3.4-4.2 3.8-6.9-2.8-2.9-3.4-6.6-1.6-9.6.6-1 2.4-4 5.8-4.6.4-.1.8-.1 1.2-.1.4 0 .8 0 1.2.1 2-2 4.2-3.1 6.5-3.1.8 0 1.6.1 2.4.4 2.5.8 4.6 2.6 5.7 4.9.9 1.9 1.1 4.1.5 6.3.3 2.4.9 7.8.1 14.5 7.9.2 15.7 2.7 23.7 7.6 1.5.9 2.8 1.8 4.1 2.7.9-.3 1.9-.6 3-.8 1.6-.3 3.2-.5 4.7-.5 7 0 16.4 3.6 21.7 20.7 1.4 4.7 2.9 8.2 4 11.1 2.7 6.6 4.8 11.9-1.1 17.1-3.9 3.4-7.7 5.2-11.5 5.2-1.3 0-2.5-.2-3.7-.6v.1c16.3 3.4 27.2 14.7 31.3 32.1 3.4-.3 5.5-1.4 6.3-3.2 1.5-3.4-1-9-1.9-10-4-4-3-6.9-2.1-8.3.9-1.4 2.4-2.2 4.2-2.2 1 0 2 .2 3.1.7 4.3 1.7 11.8 10.6 11 18.6-1 9.8-6.5 15.7-16.5 17.5l5.5.6c2.8.3 5.3 1.6 7.1 3.9 3.3 4.2 4.1 11.3 2.6 21.8-.6 4.4-2.7 7.9-6 10.1-2.9 1.9-6.6 2.9-11.1 2.9-3.6 0-7.7-.6-12.5-1.8-4.8-1.2-7.7-4.2-9.3-6.9-1.9 1.1-3.8 2.1-5.7 3v14.7c0 5.2 0 14.9-13.1 14.9h-10.8c-.5.1-.8.1-1.2.1z" class="st33"/><g id="g6140" transform="translate(-1343.3836 -75.800003)"><path id="path6142" fill="#fbc16c" stroke="#946f3a" stroke-linecap="round" stroke-linejoin="round" stroke-miterlimit="10" stroke-width="2.388" d="M1527.8 400.3s4.8-3.7 2.9-6.3c-1.9-2.6-5-2.5-6.5-.9 0 0-2.4-6.1-7.2-4.9-3.7.9-4.6 3.7-2.4 7.9 0 0-8.4 42.4 35.2 53.1l4.6-29.6c-11.7.1-26.6-3.8-26.6-19.3z" class="st85"/><g id="g6144"><path id="path6146" fill="#876a4d" stroke="#3b3024" stroke-linecap="round" stroke-linejoin="round" stroke-miterlimit="10" stroke-width="2.388" d="M1695.3 523.5c-6-.6-11.9-1.2-11.9-1.2s3.6-40.6-32.8-45.4c.6-34.6-2.4-44.8-19.1-54.9-23.7-14.4-38.7-2.2-48.8-1-1.3.2-2.9.3-4.7.3l-7.6 27.9s-9.3 39.1 7.5 73.1c16.7 34 58.5 42.4 90.7 20.9 0 0 1.2 7.2 8.4 9 7.2 1.8 22.7 4.8 24.5-7.8 1.6-12.5-.2-20.3-6.2-20.9z" class="st86"/></g><path id="path6148" fill="#fbc16c" stroke="#946f3a" stroke-linecap="round" stroke-linejoin="round" stroke-miterlimit="10" stroke-width="2.388" d="M1474.2 489.2c-.6-34.6 0-56.7 25.1-68.6 25.1-11.9 47.2-2.4 57.3-1.2 10.1 1.2 35.8-1.2 35.8-19.1 0 0-4.1-2.8-2.3-5.6 1.7-2.8 3.4-3.6 5.9-1.6 0 0 2.7-5.1 6.3-3.9 2.5.8 4.6 3.3 3.2 6.9 0 0 8.4 42.4-35.2 53.1 0 0 9.3 39.1-7.5 73.1-16.7 34-58.5 42.4-90.7 20.9 0 0-1.2 7.2-8.4 9-7.2 1.8-22.7 4.8-24.5-7.8-1.8-12.5 0-20.3 6-20.9 6-.6 11.9-1.2 11.9-1.2s-4.7-25.6 17.1-33.1z" class="st85"/><path id="path6150" fill="#e09c5c" d="M1510 553.9c-13 0-25.9-4-37.2-11.6l-1.5-1-.3 1.8c0 .3-1.2 6.4-7.5 8-4.4 1.1-8 1.6-11.1 1.6-7.2 0-11.1-2.7-11.9-8.4-1.6-11 0-15.7 1.6-17.7.9-1.1 2-1.7 3.4-1.8l13.2-1.3-.2-1.3c0-.2-2.4-13.5 4.5-23.2-.7 4.7.2 9.5 2.6 13.6 2.8 4.7 8.9 10.7 22.1 12.4 4.2.5 8.4.9 12.6.8 40.6-1 51.6-8.4 53.3-27l15.7 1.5c-1.7 7.8-4.1 15.1-7.4 21.7-10 19.9-29.3 31.9-51.9 31.9z" class="st4"/><path id="path6152" fill="#6e5a3d" d="M1630.6 553.9c13 0 25.9-4 37.2-11.6l1.5-1 .3 1.8c0 .3 1.2 6.4 7.5 8 4.4 1.1 8 1.6 11.1 1.6 7.2 0 11.1-2.7 11.9-8.4 1.6-11 0-15.7-1.6-17.7-.9-1.1-2-1.7-3.4-1.8l-13.2-1.3.2-1.3c0-.2 2.4-13.5-4.5-23.2.7 4.7-.2 9.5-2.6 13.6-2.8 4.7-8.9 10.7-22.1 12.4-4.2.5-8.4.9-12.6.8-40.6-1-51.6-8.4-53.3-27l-15.7 1.5c1.7 7.8 4.1 15.1 7.4 21.7 10 19.9 29.3 31.9 51.9 31.9z"/><path id="path6154" fill="#e09c5c" stroke="#946f3a" stroke-linecap="round" stroke-linejoin="round" stroke-miterlimit="10" stroke-width="2.388" d="M1484 544.4v22.7c0 6.6.6 10.7 9 10.7h10.1c3.5 0 11.9 1.2 11.3-13.1-.6-14.3-.6-19.1-.6-19.1" class="st87"/><path id="path6160" fill="#e09c5c" stroke="#946f3a" stroke-linecap="round" stroke-linejoin="round" stroke-miterlimit="10" stroke-width="2.388" d="M1460.2 515.2c-13.7.6-21-3.6-22.1-14.3-.6-6 5.4-13.1 8.4-14.3 3-1.2 3 .6.6 3s-10.7 21.5 11.9 20.3" class="st87"/><path id="path6162" fill="#33281d" stroke="#3b3024" stroke-linecap="round" stroke-linejoin="round" stroke-miterlimit="10" stroke-width="2.388" d="M1581.8 460.8c-.1-.8-.4-1.7.2-2.3.6-.6 1.1-.5 2-.5 5.8.1 21.1.2 24 .4 3.6.1 3.1 2.9 1.6 6-3.9 7.6-6.4 11.5-14.2 11.4-6.5-.1-12.4-6.2-13.6-15z"/><path id="path6164" fill="#693131" stroke="#3b3024" stroke-linecap="round" stroke-linejoin="round" stroke-miterlimit="10" stroke-width="2.388" d="M1609.5 464.4c-3.9 7.6-6.4 11.5-14.2 11.4-1 0-2-.2-3-.5-.1-.9-.2-1.7-.2-2.6 0-5.6 2.2-10.7 5.8-14.5 4.5.1 8.6.1 9.9.2 3.7.1 3.3 2.9 1.7 6z"/><path id="path6166" fill="#876a4d" stroke="#3b3024" stroke-linecap="round" stroke-linejoin="round" stroke-miterlimit="10" stroke-width="2.388" d="M1680.4 515.2c13.7.6 21-3.6 22.1-14.3.6-6-5.4-13.1-8.4-14.3-3-1.2-3 .6-.6 3s10.7 21.5-11.9 20.3" class="st86"/><path id="path6168" fill="#fbc16c" stroke="#946f3a" stroke-linecap="round" stroke-linejoin="round" stroke-miterlimit="10" stroke-width="2.388" d="M1488.2 439.4c-5.4-8.4-13.7-10.7-20.9-8.4-7.2 2.4-10.7 11.3-10.1 22.1.6 10.7.6 17.9 0 22.7-.6 4.8 1.8 9 7.8 9s7.2-4.2 7.2-4.2 1.8 2.4 5.4 2.4c3.6 0 10.1-2.4 10.7-10.1.6-7.7.6-9 .6-9" class="st85"/><path id="path6170" fill="#876a4d" stroke="#3b3024" stroke-linecap="round" stroke-linejoin="round" stroke-miterlimit="10" stroke-width="2.388" d="M1595 506.2c-6.8 6.9-23.1 8.1-33.8 7.3-10.7-.8-8.5-7.1-8.5-16.1 0-5.5 4.3-6.5 10.8-7.3 6.5-.8 19-.4 25.2-4.8" class="st86"/><path id="path6172" fill="#fbc16c" stroke="#946f3a" stroke-linecap="round" stroke-linejoin="round" stroke-miterlimit="10" stroke-width="2.388" d="M1548.5 478.8c14.9 0 23.9-1.8 29.2-2.4 5.4-.6 13.1 1.2 13.1 9.6 0 9.6-3.6 12.5-14.3 14.3-10.7 1.8-21.5 1.8-30.4 1.2" class="st85"/><path id="path6174" fill="#fff" stroke="#7d7d65" stroke-linecap="round" stroke-linejoin="round" stroke-miterlimit="10" stroke-width="2.388" d="M1623.7 467.4c-8.1 8.1-15.5 9-23.9 6-8.4-3-10.7-10.1-10.1-15.5.6-5.4 4.2-6 6-1.2 1.8 4.8 3 7.8 10.7 9 4.2.6 7.2-2.4 10.7-5.4 3.6-3 6-3 7.8-.6 2.1 2.8 1.2 5.3-1.2 7.7z" class="st91"/><path id="path6176" fill="none" stroke="#402f19" stroke-linecap="round" stroke-linejoin="round" stroke-miterlimit="10" stroke-width="2.985" d="M1515.1 456.1s-2.4-6-3.6-10.1c-1.2-4.2-1.8-7.2 1.8-8.4 3.6-1.2 6 1.2 7.8 5.4 1.8 4.2 3.6 10.1 3.6 10.1" class="st92"/><path id="path6178" fill="#544024" stroke="#946f3a" stroke-linecap="round" stroke-linejoin="round" stroke-miterlimit="10" stroke-width="2.388" d="M1557 460.8c.1-.8.4-1.7-.2-2.3-.6-.6-1.1-.5-2-.5-5.8.1-21.1.2-24 .4-3.6.1-3.1 2.9-1.6 6 3.9 7.6 6.4 11.5 14.2 11.4 6.5-.1 12.5-6.2 13.6-15z"/><path id="path6180" fill="#876a4d" stroke="#3b3024" stroke-linecap="round" stroke-linejoin="round" stroke-miterlimit="10" stroke-width="2.388" d="M1632.1 440c-1.8-7.8 1.2-13.7 9.6-15.5 8.4-1.8 16.7 1.8 21.5 17.3 4.8 15.5 9.6 19.1 4.2 23.9-5.4 4.8-10.1 5.4-14.9 1.8 0 0-4.2 4.2-8.4.6s-4.2-7.8-4.2-7.8" class="st86"/><path id="path6182" fill="none" stroke="#402f19" stroke-linecap="round" stroke-linejoin="round" stroke-miterlimit="10" stroke-width="2.985" d="M1605.4 452c0-6.9.7-17.9 6-18.5 5.3-.6 6.9 2.8 6.4 8.8-.5 6-1 11.9-1 11.9" class="st92"/><path id="path6184" fill="#693131" stroke="#381916" stroke-linecap="round" stroke-linejoin="round" stroke-miterlimit="10" stroke-width="2.388" d="M1529.3 464.4c3.9 7.6 6.4 11.5 14.2 11.4 1 0 2-.2 3-.5.1-.9.2-1.7.2-2.6 0-5.6-2.2-10.7-5.8-14.5-4.5.1-8.6.1-9.9.2-3.7.1-3.3 2.9-1.7 6z"/><path id="path6186" fill="none" stroke="#3b3024" stroke-linecap="round" stroke-linejoin="round" stroke-miterlimit="10" stroke-width="2.388" d="M1557 460.8c.1-.8.4-1.7-.2-2.3-.6-.6-1.1-.5-2-.5-5.8.1-21.1.2-24 .4-3.6.1-3.1 2.9-1.6 6 3.9 7.6 6.4 11.5 14.2 11.4 6.5-.1 12.5-6.2 13.6-15z"/><path id="path6188" fill="#fff" stroke="#7d7d65" stroke-linecap="round" stroke-linejoin="round" stroke-miterlimit="10" stroke-width="2.388" d="M1504.9 467.4c8.1 8.1 15.5 9 23.9 6 8.4-3 10.7-10.1 10.1-15.5-.6-5.4-4.2-6-6-1.2-1.8 4.8-3 7.8-10.7 9-4.2.6-7.2-2.4-10.7-5.4-3.6-3-6-3-7.8-.6-2.1 2.8-1.2 5.3 1.2 7.7z" class="st91"/><path id="path6190" fill="#fbc16c" stroke="#946f3a" stroke-linecap="round" stroke-linejoin="round" stroke-miterlimit="10" stroke-width="2.388" d="M1490 431.3c-7.1-5.2-8.4-17 5.3-18.6 2.7-.3 8-.2 8-.2s6.4-11.5 11.7-11c5.3.5 5.5 5.2 4.3 7.5 0 0 5.9.2 4.4 6.9-.6 2.8-3.6 4.2-3.6 4.2" class="st85"/><path id="path6192" fill="#e68a4c" d="M1499.9 459.7l-3.7 1.4c-.9.4-2-.1-2.3-1l-.1-.3c-.4-.9.1-2 1-2.3l3.7-1.4c.9-.4 2 .1 2.3 1l.1.3c.4.9-.1 1.9-1 2.3z" class="st31"/><path id="path6194" fill="#805945" d="M1630.2 459.7l3.7 1.4c.9.4 2-.1 2.3-1l.1-.3c.4-.9-.1-2-1-2.3l-3.7-1.4c-.9-.4-2 .1-2.3 1l-.1.3c-.4.9.1 1.9 1 2.3z"/><path id="path6196" fill="none" stroke="#fbd7a3" stroke-linecap="round" stroke-linejoin="round" stroke-miterlimit="10" stroke-width="2.388" d="M1592.7 412.4c.3-.6.7-1.3.9-2" class="st96"/><path id="path6198" fill="none" stroke="#fbd7a3" stroke-linecap="round" stroke-linejoin="round" stroke-miterlimit="10" stroke-width="2.388" d="M1588.8 417.1c.8-.7 1-.7 1.7-1.6" class="st96"/><path id="path6200" fill="none" stroke="#fbd7a3" stroke-linecap="round" stroke-linejoin="round" stroke-miterlimit="10" stroke-width="2.388" d="M1576.3 423c2.5-.6 4.9-1.4 7-2.4" class="st96"/><path id="path6202" fill="none" stroke="#fbd7a3" stroke-linecap="round" stroke-linejoin="round" stroke-miterlimit="10" stroke-width="2.388" d="M1560.5 424.8c1.7.1 3.5 0 5.4-.2 1.3-.1 2.6-.3 3.9-.5" class="st96"/><path id="path6204" fill="none" stroke="#fbd7a3" stroke-linecap="round" stroke-linejoin="round" stroke-miterlimit="10" stroke-width="2.388" d="M1533 419.3c6.5.6 11.4 2.2 16.3 3.6" class="st96"/><path id="path6206" fill="none" stroke="#b58e67" stroke-linecap="round" stroke-linejoin="round" stroke-miterlimit="10" stroke-width="2.388" d="M1627.4 425.2c.7.5 1.4.9 2.1 1.5" class="st97"/><path id="path6208" fill="none" stroke="#b58e67" stroke-linecap="round" stroke-linejoin="round" stroke-miterlimit="10" stroke-width="2.388" d="M1621.5 422.2c.9.4 1.9.8 2.8 1.3" class="st97"/><path id="path6210" fill="none" stroke="#b58e67" stroke-linecap="round" stroke-linejoin="round" stroke-miterlimit="10" stroke-width="2.388" d="M1607.9 419.7c2.4.1 4.8.3 7.3.7" class="st97"/><path id="path6212" fill="#6e5a3d" stroke="#3b3024" stroke-linecap="round" stroke-linejoin="round" stroke-miterlimit="10" stroke-width="2.388" d="M1656.5 544.4v22.7c0 6.6-.6 10.7-9 10.7h-10.1c-3.5 0-11.9 1.2-11.3-13.1.6-14.3.6-19.1.6-19.1"/></g><g id="g6532" transform="translate(-1343.3836 -75.800003)"><circle id="circle6534" cx="1949" cy="500.8" r="103.3" fill="#4a77ab" stroke="#132137" stroke-linecap="round" stroke-linejoin="round" stroke-miterlimit="10" stroke-width="3"/><circle id="circle6536" cx="1949" cy="500.8" r="74.7" fill="#51a1b5" class="st16"/><g id="g6538"><path id="path6540" fill="#75bd8c" stroke="#132137" stroke-linecap="round" stroke-linejoin="round" stroke-miterlimit="10" stroke-width="4" d="M2005.2 459.7c3.8 9.9 14.9 9.6 29.9 4.9 3.4-1.1 6.5-2.1 9.3-3.1-3.4-8.3-7.9-16-13.2-23-18.9 5.2-29.4 12.3-26 21.2z"/><path id="path6542" fill="#e0b779" stroke="#132137" stroke-linecap="round" stroke-linejoin="round" stroke-miterlimit="10" stroke-width="4" d="M2017 544.7c-5.9 11 .3 18.8 10.9 22.7 7.6-9 13.7-19.4 17.9-30.6-10.8-.8-24.5-.1-28.8 7.9z" class="st140"/><path id="path6544" fill="#e0b779" stroke="#132137" stroke-linecap="round" stroke-linejoin="round" stroke-miterlimit="10" stroke-width="4" d="M2003.9 420.2c.4-2.2.5-4.4.5-6.5-17.8-11.3-39.3-17.3-62-15.9-19 1.2-36.5 7.5-51.2 17.5-.4 12.8 2.4 21.8 13.8 25 15.7 4.4 26.4-.3 26.4-.3s2.1 12.3 23 13.1c20.9.8 20.9-14.8 20.9-14.8s25 3.3 28.6-18.1z" class="st140"/></g><path id="path6546" fill="#75bd8c" stroke="#1c3b28" stroke-linecap="round" stroke-linejoin="round" stroke-miterlimit="10" stroke-width="3" d="M2001.9 491.9c.4 8.1-3.7 14-13.6 17.7-9.8 3.8-20 4.2-32-6.9-12-11.1-38.3-23.9-61-20.5-28.8 4.3-36.6 23.5-36.6 23.5-1.9-2.2-5.5-6.1-12.9-9.8-.2 3.8-.1 7.6.1 11.4 3.6 56.9 52.7 100.1 109.7 96.5 6.3-.4 12.4-1.4 18.3-2.8-2.6-39.5-19.3-67.9-19.3-67.9 13.7 5.7 27.8 5.7 45.9-2.8 18.1-8.5 23.6-24.6 20.4-38-3.3-13.4-19.3-8.5-19-.4z"/><circle id="circle6548" cx="1898.9" cy="510.9" r="9" fill="#51a1b5" stroke="#1c3b28" stroke-linecap="round" stroke-linejoin="round" stroke-miterlimit="10" stroke-width="4" class="st142"/><circle id="circle6550" cx="1970.5" cy="479.5" r="9" fill="#4a77ab"/><path id="path6552" fill="#51a1b5" stroke="#1c3b28" stroke-linecap="round" stroke-linejoin="round" stroke-miterlimit="10" stroke-width="4" d="M1879.4 530.7c-2.2 4.6 0 11.8 10.8 14.3s24.7-.1 30.8-6.5c6.5-6.9 8.8-13.5 3.5-17.3-5.3-3.8-11.3.4-14.3 4.7s-10.1 4.7-17.7 1.8c-7.5-2.9-10.5-2.6-13.1 3z" class="st142"/><path id="path6554" fill="#fbc16c" stroke="#946f3a" stroke-linecap="round" stroke-linejoin="round" stroke-miterlimit="10" stroke-width="2" d="M1956.1 381.4c8.2-3 11.7-4.5 14.4-5.7 2.7-1.2 5-.4 6.4 2.4 1.3 2.8-.8 5.7-6 7.7-5.3 2-13 5-13 5" class="st25"/><path id="path6556" fill="#e09c5c" stroke="#946f3a" stroke-linecap="round" stroke-linejoin="round" stroke-miterlimit="10" stroke-width="2" d="M1950.6 411.4c.1 5.7-1.9 11.2 4.1 11.3 5.9.1 6.2-3.1 6.2-5.9 0-2.8-.1-4.7-.1-4.7" class="st26"/><path id="path6558" fill="#fbc16c" stroke="#946f3a" stroke-linecap="round" stroke-linejoin="round" stroke-miterlimit="10" stroke-width="2" d="M1913.2 410.2c4.9 3.8 12.6 2.5 14.2.1 1.6-2.4-.4-3.4-2.3-2.3s-7.2 1.6-9.7.2c-2.5-1.3-3.8.8-2.2 2z" class="st25"/><path id="path6560" fill="#fbc16c" stroke="#946f3a" stroke-linecap="round" stroke-linejoin="round" stroke-miterlimit="10" stroke-width="2" d="M1921.1 396c0 10.2 2.3 18.5 12 19s17.9-.1 23.8-.9c5.9-.8 11.1-3.5 10.9-13.7-.1-10.2-.1-25.2-.1-25.2s8.4 3 15.6-.8c7.7-4 9.7-6.7 11-8.8 1.1-1.9-1.2-7.9-6.1-4.1-4.9 3.8-10.1 6.1-15.2 3.9-5.1-2.2-7.2-5-9.9-9.3-2.5-3.9-7.7-8.1-20.6-7.7-14 .5-21.9 13-21.6 25.1.3 12.1.2 22.5.2 22.5z" class="st25"/><path id="path6562" fill="#e09c5c" d="M1939.7 414.1c-2.2 0-4.4-.1-6.6-.1-7.6-.3-11-5.9-11-18v-5.8c6.6-.2 11.3 3.5 11.6 8 .5 7.5 6.8 10 15.7 10h5.2c4 0 8.7 0 11.6-2.2-1.6 5.2-5.7 6.5-9.4 7-3.8.6-9.8 1.1-17.1 1.1z" class="st4"/><path id="path6564" fill="#fbc16c" stroke="#946f3a" stroke-linecap="round" stroke-linejoin="round" stroke-miterlimit="10" stroke-width="2" d="M1929.4 357.9c-2.1-7-10.8-9.6-15.6-3.8-4.8 5.8-9.9 17.9-6.3 21.1 3.6 3.2 5.2 2.3 7.1 1.5 0 0 2.3 4.1 6.9.9 4.5-3.2 6-9.6 6-9.6" class="st25"/><path id="path6566" fill="#fbe6c6" stroke="#668794" stroke-linecap="round" stroke-linejoin="round" stroke-miterlimit="10" stroke-width="2" d="M1938 378c5.7 4.2 11.2 4.4 14.7 1.8 3.4-2.5 5.6-5.2 4-6.9-1.6-1.7-3.5-.1-5.5 1.3-2 1.4-5.1 1.8-7.9.1-2.8-1.7-5-2.2-6.3-.8-1.4 1.5-.5 3.4 1 4.5z"/><path id="path6568" d="M1940.7 364.8c0 3.8-.2 4.2-1.2 4.2s-1.3-.5-1.3-4.2c0-4.6.3-5.1 1.3-5.1s1.2.6 1.2 5.1z"/><path id="path6570" fill="#fbc16c" stroke="#946f3a" stroke-linecap="round" stroke-linejoin="round" stroke-miterlimit="10" stroke-width="2" d="M1926 380.7c-8.2-3-8.1-3-10.7-4.2-2.6-1.2-5-.4-6.4 2.4-1.3 2.8.8 5.7 6 7.7 5.3 2 9.4 3.5 9.4 3.5" class="st25"/><path id="path6572" fill="#e09c5c" stroke="#946f3a" stroke-linecap="round" stroke-linejoin="round" stroke-miterlimit="10" stroke-width="2" d="M1928.4 412.5c.1 5.7-1.9 11.2 4.1 11.3 5.9.1 6.2-3.1 6.2-5.9 0-2.8-.1-4.7-.1-4.7" class="st26"/><g id="g6574"><path id="path6576" fill="#fff" stroke="#7d7d65" stroke-linecap="round" stroke-linejoin="round" stroke-miterlimit="10" stroke-width="4" d="M1930.3 478.8l-54.2 14.5c-6.4 1.7-13-2.1-14.7-8.5l-.3-1c-1.7-6.4 2.1-13 8.5-14.7l54.2-14.5c6.4-1.7 13 2.1 14.7 8.5l.3 1c1.7 6.4-2.2 13-8.5 14.7z" class="st10"/><path id="path6578" fill="#fff" stroke="#7d7d65" stroke-linecap="round" stroke-linejoin="round" stroke-miterlimit="10" stroke-width="4" d="M2002.5 559.5l-32.9 8.8c-5.6 1.5-11.4-1.9-12.9-7.4-1.5-5.6 1.9-11.4 7.4-12.9l32.9-8.8c5.6-1.5 11.4 1.9 12.9 7.4 1.6 5.6-1.8 11.4-7.4 12.9z" class="st10"/><path id="path6580" fill="#fff" stroke="#7d7d65" stroke-linecap="round" stroke-linejoin="round" stroke-miterlimit="10" stroke-width="4" d="M2037.3 515.3l-10.8 2.9c-5.6 1.5-11.4-1.9-12.9-7.4-1.5-5.6 1.9-11.4 7.4-12.9l10.8-2.9c5.6-1.5 11.4 1.9 12.9 7.4 1.5 5.6-1.8 11.4-7.4 12.9z" class="st10"/></g><path id="path6582" fill="#e68a4c" d="M1933.9 372.1l-2.9-.1c-1 0-1.8-.9-1.8-1.9v-.4c0-1 .9-1.8 1.9-1.8l2.9.1c1 0 1.8.9 1.8 1.9v.4c0 1.1-.9 1.9-1.9 1.8z" class="st31"/><path id="path6584" fill="none" stroke="#51a1b5" stroke-linecap="round" stroke-linejoin="round" stroke-miterlimit="10" stroke-width="4" d="M1986.7 443.9c7.1-1.4 15.8-4.7 20.3-12" class="st36"/><path id="path6586" fill="none" stroke="#51a1b5" stroke-linecap="round" stroke-linejoin="round" stroke-miterlimit="10" stroke-width="4" d="M1883.3 432.1c3.7 9.5 9.5 14.2 22.5 16" class="st36"/><circle id="circle6588" cx="2009.9" cy="424.7" r="2.1" fill="#51a1b5" class="st16"/><path id="path6590" fill="none" stroke="#66a77c" stroke-linecap="round" stroke-linejoin="round" stroke-miterlimit="10" stroke-width="12" d="M1949 587.1c-27.7 0-52.4-13.1-68.2-33.4"/><g id="g6592"><path id="polygon6594" fill="#587faa" stroke="#000" stroke-linecap="round" stroke-linejoin="round" stroke-miterlimit="10" stroke-width="2" d="M1934.9 271.4v30.3h-13.5l22.6 27.6 22.6-27.6h-13.4v-30.3z" class="st80"/><path id="line6596" fill="none" stroke="#fff" stroke-linecap="round" stroke-linejoin="round" stroke-miterlimit="10" stroke-width="4" d="M1939.7 275.79999v10.5" class="st76"/><path id="line6598" fill="none" stroke="#fff" stroke-linecap="round" stroke-linejoin="round" stroke-miterlimit="10" stroke-width="4" d="M1939.7 293.39999V301.5" class="st76"/></g></g><g id="g6600" transform="translate(-1343.3836 -75.800003)"><g id="g6602"><path id="path6604" fill="#f1614e" d="M1784.9 522.9c0-.6-.4-1-1-1h-29.3v-16.3h29.3c.6 0 1-.4 1-1v-11.4l25.1 20.5-25.1 20.5v-11.3z" class="st143"/><path id="path6606" fill="#9c3b2d" d="M1785.9 495.4l22.5 18.4-22.5 18.4v-9.3c0-1.1-.9-2-2-2h-28.3v-14.3h28.3c1.1 0 2-.9 2-2v-9.2m-2-4.3v13.5h-30.3v18.3h30.3v13.5l27.6-22.6-27.6-22.7z" class="st144"/></g><path id="line6608" fill="#f47c53" stroke="#fdbc61" stroke-linecap="round" stroke-linejoin="round" stroke-miterlimit="10" stroke-width="4" d="M1757.9 509.10001h10.6" class="st79"/><path id="line6610" fill="#f47c53" stroke="#fdbc61" stroke-linecap="round" stroke-linejoin="round" stroke-miterlimit="10" stroke-width="4" d="M1775.6 509.10001h8" class="st79"/></g><g id="g6612" transform="translate(-1343.3836 -75.800003)"><g id="g6614"><path id="path6616" fill="#f1614e" d="M2084.4 419.8l23.3-17.7c.2-.2.3-.4.4-.7 0-.3 0-.5-.2-.7l-6.9-9 32.4 1.1-7.5 31.5-6.9-9c-.2-.3-.5-.4-.8-.4-.2 0-.4.1-.6.2l-23.3 17.7-9.9-13z" class="st143"/><path id="path6618" fill="#9c3b2d" d="M2103.1 392.7l29 1-6.7 28.3-5.6-7.4c-.3-.4-.8-.7-1.3-.8h-.3c-.4 0-.9.1-1.2.4l-22.5 17.1-8.7-11.4 22.5-17.1c.9-.7 1-1.9.4-2.8l-5.6-7.3m-4.2-2.1l8.2 10.7-24.1 18.3 11.1 14.6 24.1-18.3 8.2 10.7 8.3-34.7-35.8-1.3z" class="st144"/></g><path id="line6620" fill="#f47c53" stroke="#fdbc61" stroke-linecap="round" stroke-linejoin="round" stroke-miterlimit="10" stroke-width="4" d="M2089.1001 420.5l8.3999-6.29999" class="st79"/><path id="line6622" fill="#f47c53" stroke="#fdbc61" stroke-linecap="round" stroke-linejoin="round" stroke-miterlimit="10" stroke-width="4" d="M2103.2 409.89999L2109.6001 405" class="st79"/></g><path id="path6624" fill="#587faa" stroke="#000" stroke-miterlimit="10" stroke-width="2" d="M47.9164 462.8c13.3-4.1 19.9.8 23.6 7.7 8.2 15.4-1.9 21.1-28.8 31.2-27 10.1-40.4 15.2-40.4 15.2l-1.3-56.9c14.7-5.1 25.3 2.9 27 8.8-.1.1 9.5-3.9 19.9-6"/><path id="path6626" fill="#2d3f68" d="M2.4164 474.9c2.1-.4 3.9-.6 5.4-.6 4.6 0 8.1 1.5 10 8.6l.5 2 2-.6c.1 0 10.4-3.4 22.4-7.4 2.5-.8 4.9-1.3 7.1-1.3 7.7 0 12.2 5.3 13.3 15.9-5.1 3.1-12.6 6.1-22 9.6l-37.8 14.2-.9-40.4z" class="st82"/><path id="path6628" fill="#191b22" stroke="#000" stroke-linecap="round" stroke-linejoin="round" stroke-miterlimit="10" stroke-width="2" d="M6.0164 564.9l12.2 25.7s7.2 5.9 11.4-3.8l-15.6-27-8 5.1z" class="st146"/><g id="g6630" transform="translate(-1343.3836 -75.800003)"><path id="path6632" fill="#587faa" d="M1346.3 567.9c6.1-2.8 11.8-4.2 16.9-4.2 11.8 0 19.1 7.9 19.3 21.1 0 .3.2.6.4.8.2.1.4.2.6.2h.3s2-.6 4.8-.6c5.8 0 13.5 2.3 17 13.4 5.1 15.9-14.6 25.5-29 32.5l-.8.4c-14.1 6.9-20.2 9.4-28.7 13l-.7.3-.1-76.9z" class="st147"/><path id="path6634" d="M1363.2 562.6v2c11.4 0 18.1 7.3 18.3 20.1 0 .6.3 1.2.8 1.6.3.3.8.4 1.2.4.2 0 .4 0 .6-.1 0 0 1.9-.5 4.6-.5 5.5 0 12.7 2.2 16.1 12.7 4.9 15.1-14.4 24.4-28.5 31.3l-.8.4c-13.7 6.7-19.8 9.3-27.9 12.7l-.3-74.7c5.7-2.6 11.1-3.9 15.9-3.9v-2m0 0c-5.3 0-11.3 1.5-17.9 4.6l.3 78.9c9.6-4.1 15.5-6.5 30.7-13.9 14.6-7.1 35.8-17.1 30.3-34.1-3.9-12-12.5-14.1-18-14.1-3 0-5.1.6-5.1.6-.3-14-8.2-22-20.3-22z"/></g><path id="path6636" fill="#2d3f68" d="M3.9164 509.1c1.1-.1 2.2-.2 3.2-.2 12.9 0 16.5 10.9 17.2 20l.3 3.3 2.8-1.8c.1 0 6.3-4 12.9-4 7.3 0 12.3 4.8 14.9 14.4-6.1 5.5-15.1 9.9-22.4 13.5l-.7.4c-13.7 6.7-19.8 9.3-27.9 12.7l-.3-58.3z" class="st82"/><g id="g6638" transform="translate(-1343.3836 -75.800003)"><path id="path6640" fill="#587faa" d="M1346.2 707.5c7-2.8 13.8-4.3 19.8-4.3 13.2 0 21.1 7 21.6 19.3.4 8-9.2 14.2-9.3 14.2-.5.3-.6.9-.3 1.3.2.3.5.5.9.5.2 0 .3 0 .5-.1s16.6-8.5 28.6-14.3c4-1.9 8.2-2.9 12.1-2.9 7.4 0 13.4 3.4 16.5 9.2 4.6 8.8-2.8 14.9-3.1 15.2-.4.3-.5.8-.2 1.3.2.3.5.5.9.5.1 0 .2 0 .3-.1 0 0 3.3-1.2 7.6-1.2 5.6 0 13.3 2 18.1 11.7 8.5 16.9-4.7 24.5-12.6 29-9 5.2-38.1 23.4-39.8 24.4l-61.1 24.7-.5-128.4z" class="st147"/><path id="path6642" d="M1366 702.1v2c6 0 11.1 1.6 14.6 4.5 3.8 3.1 5.8 7.8 6.1 13.9.3 7.4-8.8 13.3-8.9 13.4-.9.6-1.2 1.8-.7 2.7.4.6 1 1 1.7 1 .3 0 .6-.1.9-.2.2-.1 16.5-8.5 28.6-14.3 3.8-1.9 7.9-2.8 11.7-2.8 7 0 12.7 3.2 15.6 8.7 4.2 8.1-2.6 13.7-2.8 13.9-.8.6-1 1.7-.5 2.5.4.6 1 1 1.7 1 .2 0 .5 0 .7-.1 0 0 3.1-1.1 7.3-1.1 7.7 0 13.5 3.7 17.2 11.1 7.4 14.8-2.4 22.1-12.2 27.7-8.9 5.1-37.4 22.9-39.7 24.4l-59.7 24.1-.4-126.3c6.6-2.6 13.1-4 18.8-4v-2.1m0 0c-6.3 0-13.5 1.6-20.9 4.7l.4 130.6 62.6-25.3s30.5-19.1 39.8-24.5c7.7-4.4 21.8-12.6 13-30.3-5-10-13-12.2-19-12.2-4.6 0-7.9 1.3-7.9 1.3s8.4-6.7 3.4-16.4c-3.3-6.3-9.8-9.8-17.3-9.8-4 0-8.3 1-12.6 3-12.2 5.9-28.6 14.3-28.6 14.3s10.2-6.5 9.8-15.1c-.6-13.8-9.9-20.3-22.7-20.3z"/></g><path id="path6644" fill="#2d3f68" d="M3.8164 646.2c1.5-.3 2.9-.4 4.2-.4 4.5 0 8.1 1.5 10.4 4.2 2.5 2.9 3.5 7.2 2.8 12.2l-.3 2 2 .3s3 .5 4.7 3.1c1.3 2 1.6 4.9.7 8.4l-1 4 3.7-1.6c.2-.1 16.1-7.1 25.7-11.7 2.3-1.1 5.1-2.7 7.5-3.5 4.9-1.7 10.7 1.2 12.5 3.6 2 2.7 5.8 11.9 1.2 16.6l-12.5 9.8 9.3-3.9c.1-.1 13.1-7.5 22.9-7.5 2.3 0 4.1.4 5.4 1.3 6.6 4.1 11.3 10.7 12.7 17.7-3.2 4.5-8.5 7.6-12.1 9.7-8.9 5.1-37.4 22.9-39.7 24.4l-59.7 24.1-.4-112.8z" class="st82"/><path id="polygon6646" fill="#191b22" stroke="#000" stroke-linecap="round" stroke-linejoin="round" stroke-miterlimit="10" stroke-width="2" d="M30.1164 786l13.1 18.6h-24.5z" class="st146"/><g id="g6648" transform="translate(-1343.3836 -75.800003)"><path id="path6650" fill="#587faa" d="M1346.3 879.4l-.5-70.5c11.7-7 21.4-10.6 28.7-10.6 7.6 0 12.3 3.9 14 11.5.1.3.3.6.6.7.1 0 .2.1.4.1s.4-.1.6-.2c.1-.1 12.8-9.1 25.8-9.1 7.3 0 13.3 2.9 17.9 8.5 5.5 6.8 7.7 13.4 6.5 19.4-1.9 9.1-10.8 15.5-18 19.3-4.2 2.2-11.1 5.7-19 9.7-14.6 7.4-32.7 16.7-40.6 21.1h-16.4z" class="st147"/><path id="path6652" d="M1374.4 799.3c7.1 0 11.5 3.6 13 10.7.1.7.6 1.2 1.2 1.4.2.1.5.1.7.1.4 0 .8-.1 1.2-.4.1-.1 12.5-8.9 25.2-8.9 7 0 12.8 2.7 17.2 8.1 5.3 6.6 7.4 12.8 6.3 18.6-1.9 9.2-11.8 15.6-17.5 18.6-4.2 2.2-11 5.7-18.9 9.7-14.5 7.4-32.4 16.5-40.5 21h-15l-.5-68.9c11.3-6.6 20.6-10 27.6-10m0-2c-7.1 0-16.8 3.3-29.7 11l.5 72h17.5c11.8-6.7 47.4-24.5 59.8-31 12.4-6.5 28.3-20 11.9-40.2-5.4-6.6-12.1-8.9-18.7-8.9-13.5 0-26.4 9.3-26.4 9.3-1.5-7.3-6.2-12.2-14.9-12.2z"/></g><path id="path6654" fill="#2d3f68" d="M3.8164 802.6l-.4-55.6c8.8-4 15.1-5.8 19.6-5.8 4.5 0 9.8 1.5 10.9 13.2l.3 2.7 2.5-1c.8-.3 20.3-8.4 28-12.3 1.7-.9 4.9-1.8 8.5-1.8 6.1 0 16.4 2.6 18.2 20-3.8 4.6-9.2 7.9-13.1 10-4.2 2.2-11.1 5.7-19 9.7-14.5 7.4-32.4 16.5-40.5 21h-15z" class="st82"/><path id="path6656" fill="#191b22" stroke="#000" stroke-linecap="round" stroke-linejoin="round" stroke-miterlimit="10" stroke-width="2" d="M262.5164 805c120.1-133.6 245.9-175.3 283.3-185.2-11.4-12.4-24.7-17.1-37.5-28.3l-.2-7.2c-142.4 45.1-254 137.7-326 219 0 0-.2.6-.7 1.7h81.1z" class="st146"/><g id="g6658" transform="translate(-1343.3836 -75.800003)"><path id="path6660" fill="#2d3f68" d="M1537.3 879.8c40.6-45 85.7-85.2 134.2-119.5 59.5-42.1 122.3-73.7 186.7-94.1 10.1 9.2 19.9 18.9 29.1 28.8-38.1 10.4-163.2 52.8-281.9 184.8h-68.1z" class="st82"/><path id="path6662" d="M1858 667.3c9.6 8.7 18.8 17.8 27.5 27.2-20.7 5.7-59.7 18.8-107.9 45.5-63.1 35-121.2 81.7-172.6 138.8h-65.4c40.1-44.3 84.7-83.9 132.5-117.7 59.3-41.9 121.8-73.4 185.9-93.8m.1-2.1c-140.4 44.4-250.9 135.2-323 215.6h70.8c120.1-133.6 245.9-175.3 283.3-185.2-9.7-10.6-19.9-20.7-30.6-30.4h-.5z"/></g><circle id="circle6664" cx="893.216" cy="215.4" r="56.5" fill="none" stroke="#95b893" stroke-miterlimit="10" stroke-width="2" class="st1"/><g id="g6666" transform="translate(-1343.3836 -75.800003)"><path id="path6668" fill="#95b893" d="M2236.6 202.6c48.8 0 88.6 39.7 88.6 88.6 0 48.9-39.7 88.6-88.6 88.6-48.9 0-88.6-39.8-88.6-88.6s39.7-88.6 88.6-88.6m0-3.3c-50.7 0-91.8 41.1-91.8 91.8 0 50.7 41.1 91.8 91.8 91.8 50.7 0 91.8-41.1 91.8-91.8 0-50.7-41.1-91.8-91.8-91.8z" class="st148"/></g><circle id="circle6670" cx="1059.117" cy="410" r="46.3" fill="none" stroke="#95b893" stroke-miterlimit="10" stroke-width="3.25" class="st149"/><g id="g6672" transform="translate(-1343.3836 -75.800003)"><path id="path6674" fill="#95b893" d="M2402.5 414.1c39.5 0 71.7 32.2 71.7 71.7s-32.2 71.7-71.7 71.7-71.7-32.2-71.7-71.7 32.1-71.7 71.7-71.7m0-3.3c-41.4 0-75 33.6-75 75s33.6 75 75 75 75-33.6 75-75-33.6-75-75-75z" class="st148"/></g><circle id="circle6676" cx="893.216" cy="569.6" r="51.1" fill="none" stroke="#95b893" stroke-miterlimit="10" stroke-width="3.25" class="st149"/><circle id="circle6678" cx="893.216" cy="569.6" r="94.7" fill="none" stroke="#95b893" stroke-miterlimit="10" stroke-width="3.25" class="st149"/><circle id="circle6680" cx="893.216" cy="569.6" r="76.1" fill="none" stroke="#95b893" stroke-miterlimit="10" stroke-width="3.25" class="st149"/><circle id="circle6688" cx="810.216" cy="523.5" r="11.7" fill="#51a1b5" stroke="#31446e" stroke-linecap="round" stroke-linejoin="round" stroke-miterlimit="10" stroke-width="4"/><circle id="circle6690" cx="985.016" cy="405.9" r="11.7" fill="#a7658d" stroke="#4b2254" stroke-linecap="round" stroke-linejoin="round" stroke-miterlimit="10" stroke-width="4"/><circle id="circle6692" cx="1090.617" cy="445.3" r="8.1" fill="#a8c875" stroke="#4b2254" stroke-linecap="round" stroke-linejoin="round" stroke-miterlimit="10" stroke-width="2.75"/><circle id="circle6694" cx="951.716" cy="617.1" r="11.7" fill="#fbe6c6" stroke="#668794" stroke-linecap="round" stroke-linejoin="round" stroke-miterlimit="10" stroke-width="4" class="st29"/><circle id="circle6696" cx="956.316" cy="617.4" r="7" fill="#668794" class="st30"/><circle id="circle6698" cx="829.716" cy="280.8" r="19.9" fill="#fbe6c6" stroke="#668794" stroke-linecap="round" stroke-linejoin="round" stroke-miterlimit="10" stroke-width="4" class="st29"/><circle id="circle6700" cx="823.916" cy="286.1" r="11.9" fill="#668794" class="st30"/><circle id="circle6702" cx="958.616" cy="499.7" r="14.2" fill="#a34c4c" stroke="#381916" stroke-linecap="round" stroke-linejoin="round" stroke-miterlimit="10" stroke-width="4"/><circle id="circle6704" cx="951.616" cy="500.4" r="2.6" fill="#381916" class="st39"/><circle id="circle6706" cx="954.616" cy="492.3" r="2.6" fill="#381916" class="st39"/><circle id="circle6708" cx="962.516" cy="493.6" r="2.6" fill="#381916" class="st39"/><ellipse id="ellipse6710" cx="-116.282" cy="1128.46" fill="#ad6a3b" stroke="#663f09" stroke-miterlimit="10" stroke-width="1.653" class="st84" rx="6.6" ry="8.2" transform="rotate(-73.770504)"/><ellipse id="ellipse6712" cx="198.55" cy="1138.638" fill="#ad6a3b" stroke="#663f09" stroke-miterlimit="10" stroke-width="1.653" class="st84" rx="5.4" ry="4.4" transform="rotate(-58.7950001)"/><ellipse id="ellipse6714" cx="892.779" cy="717.475" fill="#ad6a3b" stroke="#663f09" stroke-miterlimit="10" stroke-width="1.653" class="st84" rx="4.4" ry="4.8" transform="rotate(-18.4680007)"/><circle id="circle6716" cx="949.716" cy="234.1" r="14.2" fill="#ce8c59" stroke="#381916" stroke-linecap="round" stroke-linejoin="round" stroke-miterlimit="10" stroke-width="4"/><circle id="circle6718" cx="942.716" cy="234.7" r="2.6" fill="#381916" class="st39"/><circle id="circle6720" cx="945.716" cy="226.7" r="2.6" fill="#381916" class="st39"/><circle id="circle6722" cx="953.716" cy="228" r="2.6" fill="#381916" class="st39"/><g id="g6724" transform="translate(-1343.3836 -75.800003)"><path id="path6726" fill="#ce8c59" stroke="#587faa" stroke-linecap="round" stroke-linejoin="round" stroke-miterlimit="10" stroke-width="4" d="M1606.2 856.8c19-20 38.1-34.7 38.1-34.7" class="st153"/><path id="path6728" fill="#ce8c59" stroke="#587faa" stroke-linecap="round" stroke-linejoin="round" stroke-miterlimit="10" stroke-width="4" d="M1621.3 816.8c21-19.5 42.5-34.2 42.5-34.2" class="st153"/><path id="path6730" fill="#ce8c59" stroke="#587faa" stroke-linecap="round" stroke-linejoin="round" stroke-miterlimit="10" stroke-width="4" d="M1675.5 791.4c22.5-19 42-30.8 42-30.8" class="st153"/><path id="path6732" fill="#ce8c59" stroke="#587faa" stroke-linecap="round" stroke-linejoin="round" stroke-miterlimit="10" stroke-width="4" d="M1717 743.5c22-15.1 42-23.9 42-23.9" class="st153"/><path id="path6734" fill="#ce8c59" stroke="#587faa" stroke-linecap="round" stroke-linejoin="round" stroke-miterlimit="10" stroke-width="4" d="M1768.8 733.2c23.4-14.7 51.3-25.9 51.3-25.9" class="st153"/><path id="path6736" fill="#ce8c59" stroke="#587faa" stroke-linecap="round" stroke-linejoin="round" stroke-miterlimit="10" stroke-width="4" d="M1792.7 703.9c23.9-11.7 48.4-20.5 48.4-20.5" class="st153"/><path id="path6738" fill="#ce8c59" stroke="#587faa" stroke-linecap="round" stroke-linejoin="round" stroke-miterlimit="10" stroke-width="4" d="M1844 697.6c14.7-6.8 25.4-9.8 25.4-9.8" class="st153"/><path id="path6740" fill="#ce8c59" stroke="#587faa" stroke-linecap="round" stroke-linejoin="round" stroke-miterlimit="10" stroke-width="4" d="M1554.4 879.3c21-23 42-41 42-41" class="st153"/></g><g id="g6742" transform="translate(-1343.3836 -75.800003)"><g id="g6744"><path id="line6746" fill="none" stroke="#95b893" stroke-miterlimit="10" stroke-width="2" d="M2402.5 485.79999l-1.5 1.40002" class="st1"/><path id="line6748" fill="none" stroke="#95b893" stroke-dasharray="3.9 3.9" stroke-miterlimit="10" stroke-width="2" d="M2398.2 489.89999L2309.7 575"/><path id="line6750" fill="none" stroke="#95b893" stroke-miterlimit="10" stroke-width="2" d="M2308.3 576.40002l-1.5 1.39997" class="st1"/></g></g><g id="g6752" transform="translate(-1343.3836 -75.800003)"><g id="g6754"><path id="line6756" fill="none" stroke="#95b893" stroke-miterlimit="10" stroke-width="2" d="M2236.6001 550.70001v-2" class="st1"/><path id="line6758" fill="none" stroke="#95b893" stroke-dasharray="4.055 4.055" stroke-miterlimit="10" stroke-width="2" d="M2236.6001 544.59998V295.20001"/><path id="polyline6760" fill="none" stroke="#95b893" stroke-miterlimit="10" stroke-width="2" d="M2236.6 293.2v-2l1.3 1.5" class="st1"/><path id="line6762" fill="none" stroke="#95b893" stroke-dasharray="3.951 3.951" stroke-miterlimit="10" stroke-width="2" d="M2240.3999 295.70001l111.5 130.79999"/><path id="line6764" fill="none" stroke="#95b893" stroke-miterlimit="10" stroke-width="2" d="M2353.2 428l1.3 1.5" class="st1"/></g></g><g id="g6766" transform="translate(-1343.3836 -75.800003)"><circle id="circle6768" cx="2236.6" cy="291.2" r="33.8" fill="#ebb548" stroke="#663f09" stroke-linecap="round" stroke-linejoin="round" stroke-miterlimit="10" stroke-width="3.307" class="st83"/><g id="g6770"><circle id="circle6772" cx="2218.8" cy="273.6" r="3" fill="#fff" class="st33"/></g></g><g id="g6774" transform="translate(-1343.3836 -75.800003)"><circle id="circle6776" cx="2236.6" cy="291.2" r="33.8" fill="#ebb548" stroke="#663f09" stroke-linecap="round" stroke-linejoin="round" stroke-miterlimit="10" stroke-width="3.307" class="st83"/><g id="g6778"><circle id="circle6780" cx="2218.8" cy="273.6" r="3" fill="#fff" class="st33"/></g></g><circle id="circle6906" cx="1090.617" cy="445.3" r="3.9" fill="#b4dcf5"/></svg>