<svg xmlns="http://www.w3.org/2000/svg" viewBox="-2 -2 40 40"><g><path stroke="#fff" stroke-linejoin="round" stroke-width="4" d="M32 21v1h-2v-1c0-.446-.09-.867-.225-1.268 2.446-.757 4.224-3.038 4.224-5.733 0-3.314-2.687-6-6-6-1.603 0-3.055.632-4.131 1.656C23.241 6.433 20.405 4 17 4c-3.866 0-7 3.134-7 7 0 2.551 1.369 4.777 3.409 6H13c-2.209 0-4 1.791-4 4H8l-6-4H1v14h1l6-4h1v2c0 2.209 1.791 4 4 4h13c2.209 0 4-1.791 4-4v-3h2v1h3v-6h-3z"/><path stroke="#fff" stroke-linejoin="round" stroke-width="4" d="M22 11c0 2.761-2.239 5-5 5s-5-2.239-5-5 2.239-5 5-5 5 2.238 5 5z"/><circle cx="17" cy="11" r="2" stroke="#fff" stroke-linejoin="round" stroke-width="4"/><circle cx="27.999" cy="14" r="4" stroke="#fff" stroke-linejoin="round" stroke-width="4"/><circle cx="27.999" cy="14" r="2" stroke="#fff" stroke-linejoin="round" stroke-width="4"/><path stroke="#fff" stroke-linejoin="round" stroke-width="4" d="M17 20h10v10H17z"/><path stroke="#fff" stroke-linejoin="round" stroke-width="4" d="M19 22h6v6h-6z"/><circle cx="12.999" cy="28" r="2" stroke="#fff" stroke-linejoin="round" stroke-width="4"/></g><path fill="#31373D" d="M32 21v1h-2v-1c0-.446-.09-.867-.225-1.268 2.446-.757 4.224-3.038 4.224-5.733 0-3.314-2.687-6-6-6-1.603 0-3.055.632-4.131 1.656C23.241 6.433 20.405 4 17 4c-3.866 0-7 3.134-7 7 0 2.551 1.369 4.777 3.409 6H13c-2.209 0-4 1.791-4 4H8l-6-4H1v14h1l6-4h1v2c0 2.209 1.791 4 4 4h13c2.209 0 4-1.791 4-4v-3h2v1h3v-6h-3z"/><path fill="#66757F" d="M22 11c0 2.761-2.239 5-5 5s-5-2.239-5-5 2.239-5 5-5 5 2.238 5 5z"/><circle cx="17" cy="11" r="2" fill="#CCD6DD"/><circle cx="27.999" cy="14" r="4" fill="#66757F"/><circle cx="27.999" cy="14" r="2" fill="#CCD6DD"/><path fill="#8899A6" d="M17 20h10v10H17z"/><path fill="#31373D" d="M19 22h6v6h-6z"/><circle cx="12.999" cy="28" r="2" fill="#8899A6"/></svg>