<svg xmlns="http://www.w3.org/2000/svg" viewBox="-2 -2 40 40"><g><path stroke="#fff" stroke-linejoin="round" stroke-width="4" d="M0 10s0-4 4-4h28s4 0 4 4v18s0 4-4 4H4s-4 0-4-4V10z"/><circle cx="21" cy="19" r="10" stroke="#fff" stroke-linejoin="round" stroke-width="4"/><circle cx="21" cy="19" r="8" stroke="#fff" stroke-linejoin="round" stroke-width="4"/><circle cx="21" cy="19" r="5" stroke="#fff" stroke-linejoin="round" stroke-width="4"/><circle cx="32.5" cy="9.5" r="1.5" stroke="#fff" stroke-linejoin="round" stroke-width="4"/><path stroke="#fff" stroke-linejoin="round" stroke-width="4" d="M16 9l3-6-6 2-4-5-2 5-6-1 4 6-5 4h6l-2 6 6-3 6 5-1-8 6-1z"/><path stroke="#fff" stroke-linejoin="round" stroke-width="4" d="M10 14l-3 2 1-3-3-1 3-2-3-3h4l1-3 2 3 3-1-2 3 3 3-3 1 1 4z"/></g><path fill="#31373D" d="M0 10s0-4 4-4h28s4 0 4 4v18s0 4-4 4H4s-4 0-4-4V10z"/><circle cx="21" cy="19" r="10" fill="#CCD6DD"/><circle cx="21" cy="19" r="8" fill="#31373D"/><circle cx="21" cy="19" r="5" fill="#3B88C3"/><circle cx="32.5" cy="9.5" r="1.5" fill="#FFF"/><path fill="#FFAC33" d="M16 9l3-6-6 2-4-5-2 5-6-1 4 6-5 4h6l-2 6 6-3 6 5-1-8 6-1z"/><path fill="#FFF" d="M10 14l-3 2 1-3-3-1 3-2-3-3h4l1-3 2 3 3-1-2 3 3 3-3 1 1 4z"/></svg>