<svg xmlns="http://www.w3.org/2000/svg" viewBox="-2 -2 40 40" style="background:#000"><g><path stroke="#fff" stroke-linejoin="round" stroke-width="4" d="M34 18c0 1.657-1.343 3-3 3H5c-1.657 0-3-1.343-3-3s1.343-3 3-3h26c1.657 0 3 1.343 3 3z"/><circle cx="18" cy="7" r="4" stroke="#fff" stroke-linejoin="round" stroke-width="4"/><circle cx="18" cy="29" r="4" stroke="#fff" stroke-linejoin="round" stroke-width="4"/></g><path fill="#31373D" d="M34 18c0 1.657-1.343 3-3 3H5c-1.657 0-3-1.343-3-3s1.343-3 3-3h26c1.657 0 3 1.343 3 3z"/><circle cx="18" cy="7" r="4" fill="#31373D"/><circle cx="18" cy="29" r="4" fill="#31373D"/></svg>